<?xml version="1.0" encoding="UTF-8"?>
<svg width="341px" height="152px" viewBox="0 0 341 152" version="1.1" xmlns="http://www.w3.org/2000/svg" xmlns:xlink="http://www.w3.org/1999/xlink">
    <title>Group</title>
    <defs>
        <polygon id="path-1" points="0 0.48192 46.36112 0.48192 46.36112 56.24672 0 56.24672"></polygon>
        <polygon id="path-3" points="0.29168 0.76656 57.92208 0.76656 57.92208 50.4 0.29168 50.4"></polygon>
    </defs>
    <g id="Page-1" stroke="none" stroke-width="1" fill="none" fill-rule="evenodd">
        <g id="Group">
            <g id="Untitled-2"></g>
            <polygon id="Fill-1" fill="#160A33" points="177.3736 72.12352 177.3736 46.21792 169.1304 46.21792 169.1304 40.22592 192.9896 40.22592 192.9896 46.21792 184.2344 46.21792 184.2344 72.12352"></polygon>
            <path d="M205.60016,66.95312 C206.65616,66.95312 207.56176,66.57872 208.31216,65.82512 C209.06416,65.07312 209.65136,63.90512 210.08016,62.31792 C210.50576,60.73072 210.71856,58.68432 210.71856,56.18032 C210.71856,53.87472 210.50576,51.94512 210.08016,50.38992 C209.65136,48.83792 209.06416,47.67632 208.31216,46.90992 C207.56176,46.14032 206.65616,45.75632 205.60016,45.75632 C204.50576,45.75632 203.57616,46.14032 202.80976,46.90992 C202.04016,47.67632 201.45936,48.83792 201.06896,50.38992 C200.67536,51.94512 200.48016,53.87472 200.48016,56.18032 C200.48016,58.68432 200.67536,60.73072 201.06896,62.31792 C201.45936,63.90512 202.04016,65.07312 202.80976,65.82512 C203.57616,66.57872 204.50576,66.95312 205.60016,66.95312 M205.60016,72.68752 C202.86896,72.68752 200.59856,72.04912 198.78896,70.76912 C196.97936,69.49072 195.62416,67.62992 194.71856,65.18992 C193.81456,62.74992 193.36336,59.78032 193.36336,56.27792 C193.36336,52.81232 193.81456,49.87472 194.71856,47.46832 C195.62416,45.06192 196.97936,43.21872 198.78896,41.93872 C200.59856,40.66032 202.86896,40.02192 205.60016,40.02192 C208.29616,40.02192 210.54896,40.66032 212.35856,41.93872 C214.16656,43.21872 215.53296,45.06192 216.45296,47.46832 C217.37456,49.87472 217.83536,52.81232 217.83536,56.27792 C217.83536,59.78032 217.37456,62.75792 216.45296,65.21552 C215.53296,67.67152 214.16656,69.53072 212.35856,70.79312 C210.54896,72.05552 208.29616,72.68752 205.60016,72.68752" id="Fill-2" fill="#160A33"></path>
            <path d="M227.344,53.3328 L231.1328,53.3328 C231.9168,53.3328 232.6096,53.1792 233.2064,52.872 C233.8032,52.5664 234.272,52.1392 234.6144,51.592 C234.9552,51.0464 235.1264,50.4336 235.1264,49.7504 C235.1264,49.032 234.9552,48.4192 234.6144,47.9056 C234.272,47.3936 233.8128,47.0016 233.232,46.728 C232.6512,46.456 231.9696,46.3184 231.184,46.3184 L227.344,46.3184 L227.344,53.3328 Z M219.9712,72.1232 L219.9712,40.2272 L231.2864,40.2272 C233.8128,40.2272 235.9104,40.6608 237.584,41.5312 C239.256,42.4016 240.5024,43.5632 241.3216,45.0144 C242.1408,46.464 242.5504,48.0592 242.5504,49.8 C242.5504,51.0992 242.32,52.3184 241.8592,53.4608 C241.3984,54.6048 240.7152,55.6032 239.8112,56.456 C238.9072,57.3104 237.7632,57.984 236.3808,58.48 C234.9984,58.9744 233.3856,59.2224 231.5424,59.2224 L227.344,59.2224 L227.344,72.1232 L219.9712,72.1232 Z" id="Fill-4" fill="#160A33"></path>
            <polygon id="Fill-6" fill="#160A33" points="171.43456 110.52352 171.43456 104.73792 177.62976 104.73792 177.62976 84.41312 171.74016 84.41312 171.74016 78.62592 190.58336 78.62592 190.58336 84.41312 184.38816 84.41312 184.38816 104.73792 190.83936 104.73792 190.83936 110.52352"></polygon>
            <path d="M193.6752,78.62656 L201.4064,78.62656 L210.52,97.87776 L210.008,78.62656 L216.3568,78.62656 L216.8176,78.62656 L216.8176,79.18976 C216.6464,79.39296 216.536,79.61696 216.4848,79.85536 C216.4352,80.09376 216.408,80.50336 216.408,81.08416 L216.408,110.52416 L209.3424,110.52416 L200.0752,89.99296 L200.0752,110.52416 L193.6752,110.52416 L193.6752,78.62656 Z" id="Fill-8" fill="#160A33"></path>
            <polygon id="Fill-10" fill="#160A33" points="226.40176 110.52352 226.40176 84.61792 218.16016 84.61792 218.16016 78.62592 242.01776 78.62592 242.01776 84.61792 233.26256 84.61792 233.26256 110.52352"></polygon>
            <polygon id="Fill-12" fill="#160A33" points="243.95328 110.52352 243.95328 78.62592 265.50848 78.62592 265.50848 84.36032 251.07008 84.36032 251.07008 91.06752 262.89728 91.06752 262.89728 96.80192 251.07008 96.80192 251.07008 104.78912 265.40608 104.78912 265.40608 110.52352"></polygon>
            <path d="M275.6408,91.93744 L279.2248,91.93744 C280.4184,91.93744 281.3672,91.62384 282.068,90.99024 C282.7656,90.35984 283.116,89.49904 283.116,88.40464 C283.116,87.72304 282.9624,87.10864 282.6552,86.56304 C282.348,86.01744 281.9048,85.57104 281.3256,85.23184 C280.7432,84.89104 280.044,84.71824 279.2248,84.71824 L275.6408,84.71824 L275.6408,91.93744 Z M268.2696,110.52304 L268.2696,78.62704 L278.868,78.62704 C281.5304,78.62704 283.7224,79.01904 285.4456,79.80304 C287.1688,80.58864 288.4488,81.69904 289.2856,83.13104 C290.1224,84.56624 290.5416,86.23664 290.5416,88.15024 C290.5416,89.31024 290.3096,90.46224 289.8488,91.60464 C289.388,92.75024 288.732,93.79024 287.8776,94.72784 C287.0248,95.66704 286.0168,96.41104 284.8568,96.95664 L291.4104,110.52304 L283.9368,110.52304 L277.8424,97.82704 L275.6408,97.82704 L275.6408,110.52304 L268.2696,110.52304 Z" id="Fill-14" fill="#160A33"></path>
            <path d="M292.7784,78.62656 L300.5096,78.62656 L309.6216,97.87776 L309.1112,78.62656 L315.46,78.62656 L315.9208,78.62656 L315.9208,79.18976 C315.748,79.39296 315.6392,79.61696 315.588,79.85536 C315.5368,80.09376 315.5112,80.50336 315.5112,81.08416 L315.5112,110.52416 L308.4456,110.52416 L299.1784,89.99296 L299.1784,110.52416 L292.7784,110.52416 L292.7784,78.62656 Z" id="Fill-16" fill="#160A33"></path>
            <path d="M322.01264,110.19072 C320.01744,109.59392 318.40304,108.66432 317.17584,107.40032 L320.65584,101.61632 L320.91344,101.20512 L321.42544,101.51232 C321.49264,101.75232 321.58544,101.99872 321.70704,102.25472 C321.82544,102.51072 322.10704,102.82592 322.55184,103.20192 C323.37104,103.74912 324.25744,104.20992 325.21264,104.58432 C326.16944,104.96032 327.15984,105.16512 328.18224,105.19872 C328.90064,105.19872 329.53904,105.15072 330.10384,105.05152 C330.66544,104.95392 331.15344,104.78912 331.56304,104.55872 C331.97264,104.32992 332.28784,104.01152 332.51024,103.60032 C332.73104,103.19072 332.84304,102.69152 332.84304,102.09952 C332.84304,101.79712 332.79824,101.48672 332.71344,101.16512 C332.62864,100.84672 332.48464,100.52672 332.27824,100.20672 C332.07344,99.88832 331.75824,99.55872 331.33104,99.22272 C330.90544,98.88672 330.36784,98.51552 329.71824,98.11232 C329.07024,97.70752 328.25104,97.28832 327.26064,96.84992 C325.07664,95.80672 323.34384,94.81312 322.06384,93.87072 C320.78384,92.92832 319.86224,91.89312 319.30064,90.76512 C318.73584,89.63712 318.45424,88.28512 318.45424,86.70112 C318.45424,85.15392 318.92304,83.75712 319.86224,82.51072 C320.80144,81.26592 322.07184,80.27392 323.67664,79.53312 C325.28144,78.79232 327.03984,78.42272 328.95184,78.42272 C330.41904,78.42272 331.75824,78.57472 332.97104,78.88352 C334.18064,79.18912 335.30864,79.64992 336.35024,80.26432 C337.39024,80.88032 338.35504,81.66432 339.24304,82.62112 L334.89104,87.32992 L334.58224,87.68992 L334.12144,87.28032 C334.08784,87.00672 334.03664,86.74272 333.96944,86.48672 C333.90064,86.22912 333.67824,85.89632 333.30384,85.48832 C332.75664,85.00992 332.17744,84.69312 331.56304,84.53952 C330.94864,84.38592 330.23184,84.30912 329.41104,84.30912 C328.83184,84.30912 328.30224,84.36832 327.82544,84.48672 C327.34544,84.60352 326.93584,84.76992 326.59504,84.98912 C326.25424,85.20672 325.98864,85.44992 325.80144,85.71872 C325.61424,85.98752 325.51984,86.27232 325.51984,86.57472 C325.51984,86.87712 325.55504,87.15552 325.62384,87.40512 C325.69104,87.65632 325.82864,87.91712 326.03344,88.18592 C326.23824,88.45472 326.55344,88.73952 326.97904,89.04032 C327.40624,89.34432 327.96944,89.68832 328.66864,90.07232 C329.36944,90.45952 330.24784,90.90272 331.30704,91.40672 C332.94384,92.21312 334.32624,92.98432 335.45264,93.72192 C336.57904,94.46112 337.47504,95.22432 338.14064,96.01312 C338.80624,96.80192 339.28464,97.66592 339.57584,98.60512 C339.86384,99.54432 340.00944,100.61792 340.00944,101.82432 C340.00944,103.40352 339.59984,104.89472 338.78064,106.30432 C337.96304,107.71552 336.68304,108.86432 334.94064,109.75392 C333.19984,110.64192 330.96464,111.08832 328.23504,111.08832 C326.08464,111.08832 324.00944,110.78752 322.01264,110.19072" id="Fill-18" fill="#160A33"></path>
            <g id="Group-41" transform="translate(0.000000, 61.510880)">
                <mask id="mask-2" fill="white">
                    <use xlink:href="#path-1"></use>
                </mask>
                <g id="Clip-40"></g>
                <path d="M46.36112,15.39072 L5.48912,56.24672 C3.18032,47.74592 1.54352,38.72352 0.70352,29.33472 C0.22992,24.33472 -0.00048,19.22752 -0.00048,14.04352 C-0.00048,9.45792 0.18352,4.93152 0.56592,0.48192 C17.47632,1.07872 33.18032,6.49152 46.36112,15.39072" id="Fill-39" fill="#6633FF" mask="url(#mask-2)"></path>
            </g>
            <g id="Group-44" transform="translate(27.200000, 99.910880)">
                <mask id="mask-4" fill="white">
                    <use xlink:href="#path-3"></use>
                </mask>
                <g id="Clip-43"></g>
                <path d="M57.92208,49.72656 L57.92208,50.07856 C54.51248,50.29296 51.05648,50.40016 47.55568,50.40016 C42.37168,50.40016 37.26608,50.16976 32.26608,49.69616 C21.30128,48.71856 10.84208,46.66896 1.13328,43.68816 C0.84208,43.59536 0.56688,43.51856 0.29168,43.42736 L42.95408,0.76656 C52.40368,14.75856 57.92208,31.60816 57.92208,49.72656" id="Fill-42" fill="#6633FF" mask="url(#mask-4)"></path>
            </g>
            <path d="M120.32208,55.9688 C116.28528,60.004 110.99408,62.0072 105.70288,62.0072 C100.39888,62.0072 95.10768,60.004 91.07088,55.9688 C83.01328,47.9096 83.01328,34.7912 91.07088,26.7336 C99.14448,18.66 112.26288,18.66 120.32208,26.7336 C128.37968,34.7912 128.37968,47.9096 120.32208,55.9688 M136.97168,13.3528 C119.17488,5.4168 97.76688,0.8008 74.75568,0.8008 C51.74448,0.8008 30.33648,5.4168 12.53808,13.3528 C10.38288,18.2008 8.47088,23.308 6.83408,28.66 C35.91728,30.9064 62.17168,43.4616 81.94288,62.6808 C81.98768,62.7112 82.03408,62.7576 82.09488,62.8184 C82.81488,63.5064 83.53328,64.2248 84.23568,64.9592 C84.28208,65.004 84.32848,65.052 84.37328,65.1128 C104.51088,85.8008 117.32368,113.6136 118.63888,144.3464 C125.07728,142.5288 131.20848,140.3272 136.95728,137.7576 C144.89328,119.9592 149.51088,98.5672 149.51088,75.5544 C149.51088,52.5432 144.89328,31.1512 136.97168,13.3528" id="Fill-45" fill="#6633FF"></path>
        </g>
    </g>
</svg>